<?xml version="1.0" encoding="UTF-8"?>
<svg id="_圖層_1" data-name=" 圖層 1" xmlns="http://www.w3.org/2000/svg" viewBox="0 0 186.33 134.7">
  <defs>
    <style>
      .cls-1 {
        fill: #3b5630;
      }
    </style>
  </defs>
  <path class="cls-1" d="M45.35,2.15c.48.04,1.01-.07,1.47,0,3.26.52,3.4,2.43,5.17,3.27,4.89,2.33,10.14.76,10.99,9.21,4.17-1.94,6.64-1.73,11-.73-.46,2.52,1.75,1.09,3.15,1.48.52.15.37,1.05,1.09,1.42.54.28,1.95-.24,2.3.09.12.11-.03,1.64.8,2.88.41.6,1.43.96,2.02,2,.56.97,2.18,5.87,2.44,6.06.32.23,2.2-1.05,3.81-.03.78.49,6.44,7.58,7.44,8.93,5.93,7.98,18.1,28.4,18.62,37.97.09,1.68-.26,5.47-2.04,6.02-.4.12-1.64.05-2.2,0-.36-.03-.99-.64-1.47-.73-.4-1.14-1.71-2.06-2.2-2.94-.35-.62-1.12-2.2-1.47-2.94-.09-.2.09-.53,0-.73-.25-.54-.56-1.08-.73-1.47-.13-.3-.65-.53-.73-.73-.91-2.19-2.04-5.62-2.94-8.08-.96-2.63-2-5.51-2.94-8.08-.26-.71-.03-2.26-.49-3.52-2.75-7.56-4.98-15.94-11.25-21.44,3.25,10.33-.55,20.55-5.02,29.87-3.83,7.99-8.1,14.22-16.28,18.23,6.29,1.1,13.15,5.82,19.09,6.97.23.25.45.56.73.73v.73c-1.39-.68-3.08-.45-4.41-.73-5.97-1.26-13.04-4.37-19.06-6.27-4.52-1.43-6.63-.22-7.38-6.94-2.44.92-3.08,1.56-5.87,1.47l-2.2-.73c-.48-.03-1.01.07-1.47,0-1.64.51-2.14-1.53-2.2-2.94-.01-.24.02-.49,0-.73-.03-.42,1.5-2.99-.73-4.41-2.2-13.95-2.14-33.02,4.28-46.02.68-1.37,7.98-10.81,7.47-11.25-7.12-1.43-10.29,2.38-13.21,8.07l-1.47-.73c2.15-4.4,4.12-7.89,8.82-9.91,0-1.46-7.22-1.24-8.82-.37-2.86.4-2.25-.4-2.2-2.94,2.54-.08,5.58-.19,8.08,0ZM47.74,70.97c.67.62,2.08,1.06,2.97.84,2.69-.67,6.34-15.67,6.92-18.82,1.17-6.4,3.1-22.77,1.79-28.56-.34-1.52-1.65-2.75-1.67-4.28-.02-2.02,1.81-2.96,2.16-4.57.6-2.78-.7-6.58-3.95-4.64-5.94,3.53-10.98,28.64-11.38,35.62-.25,4.28.32,21.8,3.16,24.42ZM70.14,16.27c-2.43.13-6.63,1.87-7.15,4.62-.06,9.78-.99,19.6-2.3,29.27-.58,4.29-2.49,8.76-2.85,13.31-.95,12.08.63,15.88,10.61,6.94,8.61-7.72,17.78-23.71,16.46-35.51-.69-6.16-7.62-19.03-14.78-18.63Z"/>
  <path class="cls-1" d="M34.33,2.15c.72-.06,1.47.03,2.2,0,.24-.01.49,0,.73,0-.04,2.54-.66,3.34,2.2,2.94-.14.07-1.91,1.88-2.2,2.2.07-1.25.26-1.72-1.09-1.46-.64,1.19-1.82,2.04-2.58,2.93l2.93-4.04c-4.66-1.36-7.22,1.68-9.56,5.12-7.74,11.43-10.03,30.67-4.3,43.25.52,1.14,1.71,3.55,2.84,4.12-3.06-15.71-2.89-32.74,6.62-46.25h2.2c-5.57,9.44-9.09,22.27-8.07,34.86.43,5.3,1.94,12.7,6.59,15.8-1.5-12.91-1.18-26.48,2.94-38.91.03-.1,1.06-.4,1.47-1.47.87-2.31.85-3.12,2.2-5.87l1.47.73c-5.77,11.26-9.45,38.55-3.35,49.97,1.37,2.57,2.97,3.25,5.55,4.36.07,1.41.57,3.45,2.2,2.94-.07-.01-.34.65-1.44.46-4.89-.84-6.06-4.21-9.2-6.34-1.52-1.03-3.46-1.26-5.02-2.32-17.42-11.88-15.77-39.72-5.5-55.91,3.04-4.79,4.45-6.63,10.15-7.11Z"/>
  <path class="cls-1" d="M86.47,88.06l-.73-1.47v-.73c.43.26,1.01.57,1.47.73,8.52,3.08,17.13,5.66,25.67,9.2,9.23,3.83,29.56,15.45,37.44,16.9,7.23,1.33,17.46-.93,16.77-10.1-1.31-17.4-24.54-36.43-35.23-48.54-.84-.95-1.15-2.03-2.8-1.97.19-.5.54-.96.73-1.47.15.16,2.44.36,4.05,1.46,10.24,7.03,31.25,33.9,35.01,45.75,3.96,12.47-4.55,19.31-16.66,18.13-8.75-.86-30.66-13.55-40.26-17.74-8.18-3.58-17.01-7.31-25.46-10.15Z"/>
  <path class="cls-1" d="M73.98,13.9c7.53,1.71,25.35,12.55,32.4,17.16,5.21,3.41,18.93,12.8,22.66,17.02.92,1.05.65,2.43.74,2.53-.2.51-.55.96-.73,1.47-.1.28-.96.34-.63,1.62.49,1.91,5.16,7.66,6.42,10.6.35.83,1.43,1.95.09,2.46-.19.07-1.41.05-1.47,0-.12-.1.11-.56,0-.73-.19-.29-.46-.97-.73-1.47-4.12-7.42-4.64-9.67-11.75-14.68-.26-.19-.46-.56-.73-.73-1.32-.82-3.41-2.61-4.94-2.8-1.1-.14-3.55.93-3.87.59-1.55-1.61,1.5-3.2,3.67-2.93.08.01.71.5,1.47.73,1.36.42,2.64,1.78,4.41,1.47.79,2.37,4.08,4.16,6.25,5.87,1.17-.65.02-1.59-.37-2.2-1.74-2.68-4.6-3.56-6.61-5.14-12.03-9.49-24.86-18.43-38.91-24.96-.83-1.23-.68-2.76-.8-2.88-.35-.33-1.76.18-2.3-.09-.72-.37-.57-1.28-1.09-1.42-1.4-.39-3.61,1.04-3.15-1.48Z"/>
  <path class="cls-1" d="M85.73,86.59l.73,1.47c-1.75-.59-3.93-.77-5.14-2.2,1.33.28,3.02.06,4.41.73Z"/>
  <path class="cls-1" d="M49.02,74.11c-1.63-.05-2.09-.73-2.2-.73l2.2.73Z"/>
  <path class="cls-1" d="M43.15,69.7c-.63-1.41-.5-2.95-.73-4.41,2.24,1.42.7,3.99.73,4.41Z"/>
  <path class="cls-1" d="M85,85.12c1.49.29,2.58-.85,2.2,1.47-.46-.17-1.04-.48-1.47-.73-.29-.17-.51-.49-.73-.73Z"/>
  <path class="cls-1" d="M33.6,8.76c.76-.9,1.93-1.74,2.58-2.93,1.36-.25,1.17.22,1.09,1.46-.14.15-.23.9-.73,1.47-.71-.04-1.07.15-1.47.73-.28.41-.46,1-.73,1.47h-2.2c.52-.74.74-1.34,1.47-2.2Z"/>
  <path class="cls-1" d="M35.8,22.71l1.47-1.47c-.4,1.07-1.44,1.37-1.47,1.47Z"/>
  <path class="cls-1" d="M118.04,50.61c-.05,3.69,2.29,2.73,3.67,3.67,6.92,4.75,19.58,29.56,18.22,37.62-.53,3.13-2.83,5.69-5.8,3.19-2.75-2.32-9.44-27.59-12.08-33.44-.88-1.95-6.14-10.17-5.48-11.03.44-.13,1.21.13,1.46,0Z"/>
  <path class="cls-1" d="M142.65,71.91c2.56-.67,4.03,4.35,5.18,5.82,3.27,4.2,5.98,6.34,8.02,11.81.95,2.55,4.91,18.84-1.51,13.99-2.03-1.54-6.46-17.51-8.05-21.32-.99-2.37-4-6.49-4.45-8.05-.28-1-.18-1.99.81-2.25Z"/>
  <path class="cls-1" d="M98.21,56.48c1.22,2.51,1.97,5.44,2.94,8.08.26.7.78,1.34.73,2.2-.75.45-.11.5,0,.73.16.33.93.7.73,1.47-.44.36-.03.57,0,.73.69,4.07,1.81,4.94,3.67,8.08.64,1.07.77,1.24,1.47,2.2,2.79,3.82,4.36,7.95,10.28,5.88.22,2.75-3.61,2.58-5.35,2.05-1.17-.36-5.3-4.95-6.26-6.21-4.5-5.88-8.96-19.11-10.99-26.46-1-3.62,1.75-.87,2.79,1.25Z"/>
  <path class="cls-1" d="M129.69,91.83c.39.28,1.36,4.4,2.64,5.06l5.52,4.38c-4.41,1.27-9.22-4.87-10.26-8.47-.43-1.51,1.49-1.4,2.09-.98Z"/>
  <path class="cls-1" d="M120.98,52.08c.46.59.6,1.47.73,2.2-1.38-.95-3.72.02-3.67-3.67.26-.14.47-.61.73-.73.22,1.2,1.77,1.65,2.2,2.2Z"/>
  <path class="cls-1" d="M75.45,22.71c-1.26-.24-4.9.62-5.12,1.89-.07.4,2.34,6.36,2.19,7.66-2.99-2.63-6.39,2.41-5.14,3.67.25.25,3.32-.82,2.2,1.83-.94,2.22-6.96,2.38-4.56-4.57,1.31-3.8,4.25-3.46,4.57-3.88.45-.59-2.56-3.28-1.08-6.58,1.17-2.6,6.8-3.68,6.95-.02Z"/>
  <path class="cls-1" d="M71.78,48.41c1.02,0,2.71.16,3.37-.7.99-1.28-1.47-3.24.67-4.43,5.2,3.28-2.96,13.04-4.04,5.13Z"/>
  <path class="cls-1" d="M68.83,53.55c1.86,1.29-.24,6.48-3.27,5.86-3.42-1.94,1.44-7.14,3.27-5.86Z"/>
  <path class="cls-1" d="M67.35,63.12c1.65,1.16-.69,5.76-3.64,4.38-1.02-2.44,1.36-5.97,3.64-4.38Z"/>
  <path class="cls-1" d="M52.51,48.95c-4.03,4.24-4.77-6.13-1.58-7.09,3.39-1.02,3.04,5.56,1.58,7.09Z"/>
  <path class="cls-1" d="M54.89,19.78c-.23,1.75-.37,6.64-3.29,5.86-3.14-.83,2.23-6.99,3.29-5.86Z"/>
  <path class="cls-1" d="M56.36,44.73c-3.29.67-1.75-1.25-2.69-3.52-.53-1.26-2.26-.31-1.7-2.35,3.29-.4,4.69,3.23,4.4,5.87Z"/>
  <path class="cls-1" d="M54.16,57.96c1.2,1.23-1.19,6.18-2.93,4.4-1.2-1.23,1.19-6.18,2.93-4.4Z"/>
  <path class="cls-1" d="M36.54,8.76c-.45.51-.72.79-1.47.73.4-.58.76-.77,1.47-.73Z"/>
  <g>
    <path class="cls-1" d="M79.12,90.26l-.73,3.67c-2.77-1.79-5.23-3.82-8.04-5.54-19.48-1.74-20.48,19.83-7.62,30.37,5.44,4.45,25.45,12.66,31.99,11.72,10.79-1.56,12.63-13.15,6.75-21.09-3.1-4.18-15.75-10.77-20.88-14,1.34-.66,1.77-1.42,1.47-2.94,10.89,6.82,31.18,14.1,25.53,31.04-6.51,19.52-44.19,9.68-55.58-.62-10.93-9.89-13.17-29.66,1.9-36.9,4.44-2.13,14.07-1.43,18.76.08,3.25,1.05,4.18,2.68,6.45,4.2ZM59.3,87.33c-13.22,2.74-16.58,14.66-11.15,26.19,6.01,12.77,23.11,16.37,35.75,18.57.61-1.16-1.34-1.35-2-1.66-11.05-5.16-21.37-6.47-27.4-18.85-4.89-10.04-2.65-16.6,4.8-24.25Z"/>
    <path class="cls-1" d="M82.06,92.46c.3,1.52-.13,2.27-1.47,2.94-.79-.5-1.46-.99-2.2-1.47l.73-3.67c1.07.71,2.26,1.78,2.94,2.2Z"/>
    <path class="cls-1" d="M75.78,95.86c.24.31,1.04.17,1.04.6,0,.24-.46,4.01-1.72,3.34-1.56-2.92-2.48-4.95-6.25-5.13l1.09,5.14c-9.6-4.33.1-11.63,5.84-3.95Z"/>
    <path class="cls-1" d="M66.8,116.11c1.99-3.5,9.74-1.26,6.86,4.3-2.71,2.25-9.06-.43-6.86-4.3Z"/>
    <path class="cls-1" d="M88.67,108.61c-1.31,1.39-2.16-1.33-2.93-1.46l-1.1,2.93c-5.9-3.79-.98-9.16,3.3-5.5.87.74,1.03,3.71.72,4.04Z"/>
    <path class="cls-1" d="M87.68,124.15c2.4-.77,5.62.16,5.38,3.16-2.95,3.96-9.51-1.83-5.38-3.16Z"/>
    <path class="cls-1" d="M60.04,106.42c1.45-.16,3.32,0,4.05,1.46,2.49,4.97-5.55,4.91-4.05-1.46Z"/>
    <path class="cls-1" d="M76.92,121.1c.41-.41,6.1-.52,5.13,2.56-.41,1.31-3.42,1.5-4.45.79-.79-.55-.93-3.1-.69-3.35Z"/>
  </g>
</svg>