<?xml version="1.0" encoding="UTF-8"?>
<svg id="_圖層_1" data-name="圖層 1" xmlns="http://www.w3.org/2000/svg" viewBox="0 0 186.33 134.7">
  <defs>
    <style>
      .cls-1 {
        fill: #3b5630;
      }
    </style>
  </defs>
  <path class="cls-1" d="M184.68,80.02c-.04-1.17-.95-2.35-1-3-.04-.56-.12-1.58,0-2,.87-1.87.8-2.71-1.25-2.47.29-1.88-.23-2.54-2.05-1.58-1.25-3.49-2.38-4.62-3.39-3.41.56-.84,1.03-1.79,1.68-2.54.82-.94,2.28-1.78,3-3-.05-.77.97-2.11.88-2.51-.72-3.36-5.33.35-6.88,1.51-.94.71-1.66,1.73-3,2-.27-.25-1.6-.26-2-1,2.59-1.75,2.15-2.96,2-6,.19-1.95-3.65-1.96-3,0-.07.49-.93.81-1,1l-6-1c-.31-.34-.73-.65-1-1-1.47-1.87-1.95-3.41-5-3,.04-.35-.08-.73,0-1,.33-1.11,1.37-2.91,2-4,.36-.63.6-1.45,1-2,.67-.91,3.37-1.51,3-4,3.9-.63,15.41-4.43,15.88-8.68.19-1.74-1.75-2.03-1.88-2.32-.38-.82-.49-1.93-1-3-1.05-1.54-2.05-2.88-3-4,.5-.64.17-1.31-1-2-3.36-1.35-2.43-.23-4,0-.35.05-.73-.08-1,0-1.81.79-2.14,1.46-1,2-1.65-.81-2.65.19-3,3-.08.31.08.69,0,1-1.24.1-2.24,1.1-3,3-1.28,1.02-2.98,1.6-4,3-.6-.1-1.35.02-2,0-.48-.86-.81-.89-1,0-3.66-.07-7.34.05-11,0-.55-2.24-2.21-2.57-5-1,.86-1.43,3.08-2.02,4-3,.31-.33.84-.73,1-1,1.22,0,3.45-1.93,4-2,.96-.13,6.97.8,8.44,1.07l1.27-1.62c2.22-.87,3.66-2.68,4.29-5.45-.48-3.56-1.06-3.86-4-5,.27-1.99-.57-2.43-2-1,.19-.88.8-1.82,1-3,.11-.62-.07-1.35,0-2-.82-.14-1.84-.91-3-1-.66-.05-1.34.02-2,0-.33-.01-.67,0-1,0-.65,0-1.36-.07-2,0-1.96.45-2.56.97-2,3,.02.29.07.73,0,1-1.62,6.28-9.65,6.47-15,6-3-.72-6.01-1.31-9-2-2.72-.62-4.36-1.41-8-2-2.67-.43-5.62-1.78-9-1,.07.32-.08.69,0,1-1.49-1.63-3.9-2.33-5,0-.33,0-.67-.01-1,0-1.03.23-1.36.56-1,1-2.16.73-4.78,1.41-7,2-.61.16-1.31.82-2,1-.12.03-1.13-.72-2.08-.47-2.98.78-5.74,2.42-8.92,2.47.1.2-.04.64,0,1-1,.04-2.01-.06-3,0-5.35.3-4.58,1.37-8,4-1.13.87-2.19,2.41-3,3-3.35,2.41-7.6,4.38-11,7-1.1.84-2.33,3.77-4.01,4.49-1.93.83-4.19.52-6.99,1.51-6.31,2.23-10.28,8.22-13,14-1.03.05-1.61.9-2,1-1.95.51-4.27.97-6,2-.93.55-2.91,3.13-4,4-2.54,2.03-3.42,1.82-6,5-.77.95-4.87,6.59-5,7-.09.27.05.65,0,1-2.22,3.1-1.01,7.62,0,11,.1.33.87.67,1,1,.95,2.34.71,1.97,2,4,1.01,1.59,1.4,3.22,3,5,1.98,2.21,3.7,4.47,7,5,.59,2.98,1.6,3.07,3.87,4.64,5.57,3.87,11.33,5.78,17.13,8.36,5.2,2.31,7.44,3.22,13,5,4.5,1.44,6.29,1.93,11,3,1.29.29,2.32.68,4,1,8.95,1.69,15.73,2.65,25,3,4.3.16,8.69.02,13,0,.67,0,1.33,0,2,0,2.82-.02,7.02.81,9-1,.66-.03,1.34.05,2,0,5.95-.49,9.04-1.91,14-3,2.61-.57,6.67.76,9-2,.33.02.67-.03,1,0,.72.08,1.26,1.12,3.02.59,1.92-.58,2.26-2.11,2.98-2.59,1.03-.67,1.74-1.84,2-2,2.06-1.25,5.23-2.37,8-4,1.46-.86,3.57-.74,4-1,2.15-1.33,5.58-4.3,8-6,2.83-1.98,5.4-3.65,8-6,.86-.78,2.21-2.14,3-3,.32-.35.7-.64,1-1,.54-.64,1.62-.78,2.25-2.23.8-1.85.58-2.99.75-4.77.06-.65-.02-1.34,0-2,.06-1.98.07-4.02,0-6ZM158.68,90.01c1.78-.53,5.5-.6,3.51-2.99-1.09.92-2.46.89-3.51,1.99-.45-1.5-1.56-2.65-2.93-3.32,1.37-.12,2.93-.67,4.7-1.68,2.82,1.05,4.89,1.05,6.22.01,1.5,2.87,1.9,5.06-1,7l-1.78-1.34c-1.67,1.2-4.29,2.77-5.22.34ZM139.68,103.01c-.48-1.6-2.04-2.36-3.45-2.23,1.3-3.3-.37-9.09-3.55-9.77l.62-.82c.91-.33,1.96.81,2.38.82,2.73,5.02,7.97,1.28,2,0,.16-.01,1.48-.83,3-1,.65-.07,1.34.05,2,0-.96,1.82-.39,2.42,1,1l.25,2.41c3.7,1.52,4.9,4.4.51,6.08l-.76,2.51c-.99.39-2.88,0-4,1ZM129.62,97.32c-1.37,2.07-2.02,3.97-1.94,5.7-1.66-2.37-6.41-1.11-6,2-2.25-6.31-2.83-7.68-9-10-.7-.26-2.36-.44-4-1,.26-1.45-.32-2.76-1-4,.19-.07.37-.14.53-.21,1.38-.47,3.09-.52,4.47-.79.98,1.09,3.35,1.45,5.76,1.28-1.28,1.77,5.05,3.46,5.24,3.72-.28-.34-1.53-3.05-3-4.03,1.82-.39,3.38-1.08,4-1.97-1.16,2.48,2.12,5.22,4,3-.67,1.66-.36,3.76.94,6.3ZM104.06,106.59c1.57-2.82.19-7.88-2.65-8.86,2.01-.13,3.78-.05,5.27.28.47,3.47,1.04,1.71,5,1.99.38-1.57-1.13-.51-2.02-1.61l.03-1.38c.85.01,2.47-.2,3,0,1.63.61,6.89,6.44,4,8-.55-.06-.79-.92-1-1-3.45-1.3-6.6-.92-10,1,.16.66.66.9,1.3.98-1.65-.15-2.35.15-2.11.87-.26-.22-.54-.31-.81-.27ZM71.68,107.01c1.29-.1,2.79-.5,3-1.99-.94-.16-2.17.19-3-.01-2.23-.55-5.52-2.96-5,1v1c-.04-2.24-1.93-3.42-3.69-2.83,2.29-1.58,5-4.15,5.69-6.17,1.96-.41,4.86.28,7,0,1.79,1.25,3.45,1.95,5,3,.44.3.92,1.83,2,2-.31,1.19-.8,2.93-1,4-.29.14-.47.27-.57.39-2.29-2.22-5.43-2.02-9.43.61v-1ZM43.68,100.01c-1.07-.15-2.45.15-3.52.07-.15-.03-.31-.05-.48-.07-1.98-2.7-2.31-4.68-1.59-7.01h3.58s0-1.99,0-1.99l-3.13.79c.35-.82.81-1.7,1.35-2.68l-1.22-2.11c-2.63-3.07-6.57,1.04-6.31,3.99-.58-.19-1.18.48-1.69,2.01-1.59-3-2.3-5.13-2.69-8.48h-.03c.64.04.64-.54-.29-1.52,1.87.8,4.1.41,6.69-1.16,2.12.65,3.89.7,5.31.16.4.37.61,1.46,1,2-.44.77-1.04.89-2,3,4.05-.76,7.94.33,11,3,.27.68.66,1.35,1,2,.33.65.6,1.41,1,2-2.82-1.07-8.77,2.86-8,6ZM18.67,82.8c.6-1.49-.25-3.41-.99-4.79,1.01,1.68,2.88,2.15,5.59,1.42-.48,2.37-.01,3.9,1.41,4.58-1.63.42-2.97,1.09-4,2,1.02-2.26-.6-4.07-2.01-3.21ZM22.68,67.02c.93,2.62,3.12,2.65,4,0,.2.07,2.47,2.43,3,3,.1.1-.17,1.02.32,1.67.86,1.15,3.58,1.24,2.68,4.33-.45.17-1.4,1.65-2.28,2.33-.7.53-2.4.38-2.72.67-.11-1.54-3.46-4.29-4.77-4.95-.92-.46-2.6.2-3.23-.04-.35-2.59-.02-6.19,3-7ZM71.68,68.02c.95.28,1.28-.06,1-1,2.49,2.09,8.24-3.88,8-6,2.73.23,4.5-2.62,4,1-2.8-.18-3.82,1.79-1,3-3.09.24-8.22,7.25-7,10-2.44-1.26-3.69-.27-2,2-1.24,1.18-3.44,2.05-4,3.99,2.65,1.23,5.16-1.78,6-1.99,1.55,2.47,10.86,1.68,12-1,.53,2.63,5.56,4.61,7,2-.07,2.74,4.88,6.01,7,4,.52.43.88,1.79,2,2-7.71,8.18-21.63,7.45-32.5,6.25l-1.5,1.75c-.24-2.99-4.33-4.58-6-2l-4-4c-.07-.17-.15-.29-.22-.4,1.09-.68.89-1.41-.78-1.6l2.13-1.3c1.03-5.87,4.4-10.61,10.1-14.21l-.23-2.49ZM82.3,98.01h-.62c.04-.06.33-.02.62,0ZM60.18,98.02c-1.98.18-5.15-.88-6.5.99-.39-.22-.69-.67-1-1,1.7.04,2.59-.99,1-2,2.21-1.54,8.11-1.16,11-1,.33.02.68-.04,1,0h-1c-2.61,1.02-3.94,2.35-4,4-.02-.45.05-.83-.5-.99ZM97.68,109.01c-2.53.32-6.32.11-9,0-.77-1.91-1.77-2-2,0l-.79-.38c-1.99-1.16.08-2.37-.34-4.92-.24-1.48-1.46-1.94-1.87-2.7-.53-.95-.9-1.91-1-3,1.71-.23,4.17-.05,6,0,.69,2.53,5.81,3.79,7.54,1.8-.84,2.44,2.21,6.26,4.46,4.2.05-.08.09-.13.13-.18-.06.11-.11.18-.13.18v3c-2.24-1.75-4.06-.64-3,2ZM105.99,108.01c-.1,0-.21,0-.31,0,.14-.03.24-.02.31,0ZM107.19,106.02c1.51.11,3.69-.49,4.49.99l-1.62-.5c-1.15-.25-2.1-.42-2.87-.5ZM153,82.12c.24-.4.43-.84.68-1.11-.24.65-.47,1.01-.68,1.11ZM154.21,92.03c-.44.73-.74,1.4-.92,2.03-1.7-2.09-2.58-4.1-2.62-6.05,0,1.64,1.17,2.98,3.53,4.02ZM153.13,95.35c.02.61.2,1.17.55,1.66-1.1.69-1.28.13-.55-1.66ZM170.71,23.97c.16.18.49.19.97.05-.41.1-.76.23-1.06.38.04-.13.08-.28.09-.43ZM156.68,34.02c3.99,3.7,11.94-4.83,10-9,.87.65,1.83.85,2.6.66-1.07,2.14,1.12,5.41,3.8,5.88-.83.41-3.54,1.87-3.58,2.09-.07.44.03.9.18,1.38-2.08-2.47-6.29-.47-4,2-3.23-2.26-5.08.85-5,4-2.03-1.26-2.68-.17-2,2-2.05-5.1-1.74-3.14-3,1-3.55.54-2.52,2.73-1,5-.5-.79-1.17-.45-2,1-.86.33-.86.67,0,1-.76,2.06-6.49,10.67-8,12-3.66,3.22-8.32,3.76-12,6-.79.48-1.98.86-2,1.99,3.35.4,5.13.07,8-.99.42-.16,1.49-.73,2-1,1.91-1.03,3.41-2.56,5-4,1.32-1.19,2.8-2.18,4-3.5,1.25-1.37,4.27-7.12,5-7.5.62,1.64.97,2.21,1.37,1.64-.03,2.09,2.96,3.31,3.63.36-.26.55.18,2.16,0,3l-2.53.34c-2.83,5.07-6.73,9.36-11.26,13-.02,2.16-.86,3.22-2.55,3.17l.34,1.5c.59,2.43,3.98,2.8,6,2-.53,1.77-.93,3.46-2,5-.53-.05-2.16,1.47-4.26.86-1.09-.32-4.19-3.66-5.74-4.86-.41-.32-.7-1.65-1.5-1.98l-2.5,2.98c-.64-1.48-1.31-1.99-3-2-.15-.25.16-.79,0-1-.11-.15-.93-.98-1-1-3.1-2.89-14.49-2.08-9,3,.72.66,3.03.67,3.01,1.5-.25.94-2.14.51-3.01.5-.96-.01-2.13.14-3,0-.45.08-.8.15-1.09.22.03-.09.39-.16,1.09-.22-2.35-.38-5.87-2.3-8-3-.2-.07-1.19,1.1-1.8.78-.46-.24-6.28-7.08-6.62-7.86-4.89-11.21,2.17-28.53,13.42-32.92,1.92-.75,8.55-1.7,11-2,1.54-.19,5.52-.99,6-1,.48.85.81.89,1,0,1.83.78,3.16.78,4,0,2.33,0,4.67-.04,7,0,2.59.05,2.32.52,6,0,1.98.43,7.5.04,7-2ZM118.68,17.02c.39,3.26,9.15,5.93,11,3,.25.08.5.14.74.21,1.76.62,4.52,2.15,6.26-.21.42.87.76.9,1,0,2.86,4.74,11.15-3.3,8-7,1.82,2.03,5,.34,4.66-1.73.46.4.97-.01,1.34-1.27.07,0-.13.62,1,1,.13,1.1-.77,2.69-.63,3.55.2,1.24,1.27,1.09,1.63,1.45,1.06,3.37-1.7,4.98-8.27,4.83l-.73,2.17c-2.67-1.56-4.24-.11-2,2-2.62-1.6-5.39-.64-8.31,2.88-1.76-1.87-3.32-2.16-4.69-.88-5.8-3.72-9.25-5.86-16-8-1.02-.32-1.92-.74-3-1,.68-1.47,2.69-1.01,4-1,.83,2.01,3.77,2.41,4,0ZM58.68,34.02c2.11.37,5.69-1.62,4-4,3.1,2.19,11.43-2.13,9-6,1.44,2.82,4.72,2.18,5-1,2.74,2.24,9.57.15,11-3,1.5-.25,4.06-.92,5-1,2.66-.22,6.33-.2,9,0,.49,2,3.5,2.15,5,1,.83.11,1.75,0,2,1,1.76.22,2.59.66,4,1,4.7,1.14,10.59,3.88,15,6-1.53,3.22,2.47,4.65,5,4-.86.38-.87.72,0,1-1.32-.22-3.55-.07-5,0-6.13.28-11.36,3.85-16,4-.86.38-.87.72,0,1-6.5,1.41-14.11,13.74-15,20-.29,2.07-.28,6.91,0,9,.45,3.37,2.78,8.42,5,11v1l-1.93.95c.04-2.71-2.23-2.31-4.07-2.95-2.15-.75-3.01-.67-5-1-.19-.03-.67-.82-1.59-.93-2.11-.24-5.76.99-8.41-.07,3.19-2.72,9.24-13.59,9.82-17.77.38-2.75-.13-6.16-3.82-5.23-.74.74-1.27,2.35-2,3-2.37,2.1-8.15,6.48-11,7-.55.93-.87,1.93-1,3-.59.13-1.62-.19-2,0-4.06,2.08-11.61,10.39-13,15-.31,1.03-1.14,1.4-1.14,3.5,0,2.09.73,2.35,1.14,3.5.35.98.39,2.1,1,3l-3,2c-2.68-.42-1.57-.63-3-2-.34-.33-.65-.69-1-1-2.12-1.85-1.45-1.17-3-2-.46-.25-.68-1.54-1.79-1.94-1.75-.64-4.18.99-5.21-2.06.1-.3.1-1.69,0-2-1.06-3.38-4.46-3.31-7-4,.25-3.23-.35-6.85,0-10,.07-.65-.07-1.35,0-2,.05-.44,1.89-3.19,2-4,.08-.57.07-1.43,0-2,1.76-4.46,4.32-8.29,7-12,.81-1.11,2.2-3.16,3-4,3.96.3,11.04-5.46,12-9ZM32.22,55.65c1.65-1.62,8.68-10.43,9.96-12.36.03-.05.04-.11.03-.19.5.32,1.32-.03,2.47-1.08-.96,1.35-1.96,2.71-3,4-3.27,4.05-4.08,5.04-6,10-.03.16-.07.34-.11.51,0-.17.03-.35.11-.51-1.48,3.83-1.26,4.32-2,8-.24,1.21-1.82,2.93-1.01,5-.23.44-1.58-.97-1.99-1l-2-4v.39c-.01-.13-.02-.27,0-.39.26-1.85-.18-4.08,0-6,2.6.44,3.08-.33,1-2l2.54-.37ZM130.68,121.01c-3.44-1.52-10.1-.32-13,2-1.59.13-4.14-.67-5,1-1.61-1.95-3.39-1.95-5,0-.83-.7-1.68-1.26-2.57-1.35-4.26-.4-20.4-1.51-22.8-.87-.92.24-1.78.7-2.63,1.21-1.66-.07-3.34,0-5,0-.86-1.75-3.49-.76-5-1-.74-2.13-6.21-3.14-7-1,.86-1.91-2.44-2.75-4-2,.16-.46.52-.89,1-1,.28-.06.7-.02,1,0,3.33.18,6.25.95,10,1,0,1.64,3.37.93,5,1,3.31.14,6.68-.02,10,0,.11,1.25,1.5.96,2.43,1.05,9.55.91,22.84-.17,32.57-1.05,2.03-.18,3.98-.73,6-1,2.35-.31,4.67-.55,7-1,1.19-.23,2.91.27,4,0-.86.38-.87.72,0,1-1.94-.68-7.3-.16-7,2ZM175.68,98.01c-2.5-1.55-8.36,1.62-8.53,4.49-.51-.96-1-.47-1.47,1.51-2.16-1.82-2.83-1.48-2,1-3.32-1.23-5.81-1.72-8,1.5l2,1.49c-1.73-1.02-2.35-.4-1,1-1.91-2.64-10.58.91-11,4-2.28.65-6.47,1.48-9,2-1.41.29-3.09.84-4,1-4.72.82-10.3.57-15,1-.19.02-1.12.94-2.42,1.04-3.41.26-7.99-1.09-10.58.96-4.65-.12-9.35.07-14,0-1.09-1.68-4.11-.97-6-1-2.32-.03-4.68-.07-7,0l-.5-.99c-4.54-.11-10.08-.25-14.5-1.01-1.52-.26-3.4-.69-5-1-2-.39-5.77-1.42-8-2-.73-.19-1.92-.69-3-1-2.4-.7-4.58-1.09-7-2l-.75-2.45c-1.97-1.25-19.24-9.97-20.23-9.45-.39.2-.71.53-1.02.89,1.55-2.33-2.84-6.97-5-5,1.33-2.5-.22-4.93-3-4,2.25-1.84.95-5.67-2-5,3.3-1.27,1.46-4.27-1-2v-5c.83.34,1.77.55,2.46.07.52-.36,5.53-9.86,2.54-10.07.21-.29,4.72-4.79,5-5,.36-.27,3.05-1.5,4-2,1.04.67,1.97.91,2.76.79-.07.96.43,1.83,1.61,2.12-1.79-.23-2.7.2-4.37,1.1-2.19,1.18-3.12,2.79-4,5-.83,2.08-1.55,3.35-1,6-.1.3.1.7,0,1-.29.92-2.09,1.15-1.81,4.23.4,4.31,2.04,3.47,3.81,4.76,1.32.96,1.58,1.14,3,2,.47.28,1.52.11,2.53.92,1.56,1.26,2.05,4.34,4.47,5.07.27.08.65-.04,1,0,6.34,1.42,3.97,5.81,10,8,3.37,1.22,4.45.48,7,1,.32.07.68-.06,1,0,1.45.26,3.65,1.74,6,2,2.23.25,4.72-.17,7,0,.36.25.63.74,1,1,10.14,6.93,10.09,4.16,21,4,.33,0,.67,0,1,0,1.09,1.68,4.11.97,6,1,1.33.02,2.67.02,4,0,.66,1.58,4.34,1.58,5,0,.66-.05,1.34.07,2,0,.55-.06,1.4-.91,2-1,.33-.05.68.06,1,0,.62-.12,1.42.14,2,0,6.75,1.04,8.78-.43,14-3,.55.02,1.43.9,3.2.77,3.19-.22,4.59-1.68,6.8-2.77.36-.18.65-.8,1-1,3.99,1.03,9.96,1.65,14,1,2.79-.45,4.78-2.56,7-4,1.36-.88,2.68-2.04,4-3,1.44-1.05,2.45-2.62,3-3,2.95.61,4.66-.28,7-1,.84-.26,1.29-.55,2-1,.44-.28,1.55,0,2.47-.98,2.59-2.73,1.85-6.42-.47-9.02,1.05-1.74.49-2.32-1-1v-2c1.61.05,1.51-.72,2-1l1.4-1.05,7.6-.96c-.65-1.99-2.16-2.6-4-2.99-.58-.12-1.35.07-2,0l-1-2c.88-.23,2.04-1.57,3-2-1.35,1.56-.14,3.1,3.63,4.6.88,2.88,2.33,4.34,4.37,4.4-3.03,1.17-2.56,6.4,0,8-2.95.27-8.78,8.56-7,11Z"/>
  <path class="cls-1" d="M140.68,79.01c3.86.91,2.64-1.66,3-1.99-1.26.18-2.79.44-3,1.99Z"/>
  <path class="cls-1" d="M82.68,35.02c2.45.33,3.76-1.76,4.58-2.64.13-.1.27-.21.42-.36,1.72-.75,9.64-3.74,11-4,.79-.15,2.1-.04,3,0,1.09-1.38,3.38-.33,3-1.99-2.75-.91-5.11.64-7,.99-5.47,1-6.17.91-11,4-1.52.97-4.09.57-4,4Z"/>
  <path class="cls-1" d="M72.68,37.02c1.97-1.48,4.54-3.98,6-5,.46-.32,2.03-.39,3-1,1.26-.8,3.77-1.61,4-2.99-3.02-.4-5.5.42-8,1.99-1.53.97-4.62,4.48-6,6-1.4,1.54-1.44,2.3-2,3,1.99.35,2.29-1.47,3-2Z"/>
  <path class="cls-1" d="M51.68,48.02c.13-.09,2.84-.98,3-1v-1c.65-.21,1.41-.9,2-1,.78-.13,2.29.4,2.83-.13.37-.37.84-3.73,1.17-4.87.19-.66.82-1.33,1-2,1.66.35,2.23-.75,3-2-.38-.36.94-2.88-3-2-.17.93.21,2.2,0,3h-1c-3.05.1-4.24,3.16-6,5-2.1,2.2-2.3,2.42-4,5-1.48,2.25-2.85,1.58-3,6,2.86.83,2.04-3.55,4-5Z"/>
  <path class="cls-1" d="M112.68,61.02c-.11.13-.67-.08-1,0-.54,2.56.17,3.83,1,6,.17.45,0,4.22,1.99,1.99.37-.42.45-8.15,1.01-10.99-2.88-.49-2.45,2.36-3,3Z"/>
  <path class="cls-1" d="M112.68,52.02c-1.58,1.45-2.64.04-4,4-.79,2.31-2.44,10.04-.75,11.79.5.52,1.36.08,1.75.21.27.09.62.79,1,1,.48-1.98-.21-5.61,0-8,.03-.33-.03-.67,0-1,.08-.91-.22-2.38,0-3,.1-.27,2.79-4.72,3-5,.65-.88,3.3-2.07,4-3.5l-.5-.5c-2.36,0-3.25,2.87-4.49,4.01Z"/>
  <path class="cls-1" d="M151.68,101.01c1.44,3.4,2.08,1.3,3,1,.34-3.28-.56-1.47-3-1Z"/>
  <path class="cls-1" d="M48.68,72.02c.64-1.55.62-3.05,1-4,.76-1.93,2.08-5.43,3-7,.26-.44,1.66-2.53,2-3,1.65-2.28,3.76-3.21,6-7-4.07-.71-5.91,2.11-8,5-.27.38-.81.67-1,1-.61,1.08-.62,2.1-1,3-1.13,2.68-1.33,4.38-2,7-.53,2.08-.64,3-1,5-.1.58-1.63,1.45-.99,3,1.8-.2,1.53-1.89,1.99-3Z"/>
  <path class="cls-1" d="M76.68,101.01c-1.49-.2-4.49-.19-6,0-1.53.19-3.12-.29-1.5,2l10.49-.02c.35-1.11-2.44-1.91-2.99-1.99Z"/>
  <path class="cls-1" d="M75.68,85.02c2.71.5,2.3.03,4,0,1.05-.02,3.24.98,5-.01-.77-2.81-2.88-.99-5-.99l-.2-1.83c-.55-.27-.72.84-.8.83-2.23-.14-4.81-1.03-6,1.99.97.13,2.1-.16,3,.01Z"/>
  <path class="cls-1" d="M92.68,83.03c-1.78-.11-4.27,1.12-5,2.98,2.25.37,4.19-.89,5-2.98Z"/>
  <path class="cls-1" d="M125.67,99.01c1.46-5.42-1.7-4.65-1.99-4.99.53.72,0,5.43,1.99,4.99Z"/>
</svg>